<?xml version="1.0" encoding="UTF-8" standalone="no"?>
<svg width="1034px" height="651px" viewBox="0 0 1034 651" version="1.1" xmlns="http://www.w3.org/2000/svg" xmlns:xlink="http://www.w3.org/1999/xlink">
    <!-- Generator: Sketch 3.8.1 (29687) - http://www.bohemiancoding.com/sketch -->
    <title>hero</title>
    <desc>Created with Sketch.</desc>
    <defs></defs>
    <g id="Page-1" stroke="none" stroke-width="1" fill="none" fill-rule="evenodd">
        <g id="hero" transform="translate(-22.000000, 0.000000)">
            <g id="streamer" transform="translate(386.000000, 211.000000)" fill="#FFFFFF">
                <g id="Capa_1">
                    <path d="M318.903433,33.1813654 L238.403433,0.739057692 C238.322933,0.706615385 238.2317,0.697346154 238.1512,0.669538462 C237.9258,0.59075 237.695033,0.5305 237.464267,0.479519231 C237.271067,0.437807692 237.083233,0.396096154 236.890033,0.372923077 C236.648533,0.340480769 236.407033,0.335846154 236.160167,0.335846154 C235.9616,0.335846154 235.763033,0.335846154 235.564467,0.354384615 C235.3337,0.372923077 235.113667,0.419269231 234.888267,0.465615385 C234.6736,0.511961538 234.458933,0.558307692 234.249633,0.623192308 C234.1745,0.646365385 234.094,0.651 234.018867,0.678807692 L161,27.70325 L87.9811333,0.678807692 C87.9328333,0.660269231 87.8845333,0.660269231 87.8362333,0.641730769 C87.6215667,0.567576923 87.4015333,0.525865385 87.1815,0.479519231 C86.9775667,0.433173077 86.7736333,0.382192308 86.5643333,0.354384615 C86.3389333,0.331211538 86.1189,0.335846154 85.8935,0.335846154 C85.6842,0.335846154 85.4802667,0.321942308 85.2763333,0.345115385 C85.0455667,0.368288462 84.8201667,0.423903846 84.5947667,0.47025 C84.3962,0.511961538 84.1976333,0.544403846 84.0044333,0.604653846 C83.9615,0.618557692 83.9132,0.618557692 83.8702667,0.637096154 L3.37026667,28.4447885 C1.3363,29.14925 0,30.8501538 0,32.7457115 L0,232.034173 C0,233.572865 0.8855,235.009596 2.35596667,235.871635 C3.25756667,236.395346 4.30943333,236.668788 5.36666667,236.668788 C6.0375,236.668788 6.7137,236.562192 7.36306667,236.339731 L85.8022667,209.245769 L158.8909,236.293385 C158.966033,236.321192 159.046533,236.307288 159.121667,236.335096 C159.733467,236.534385 160.361367,236.668788 161.005367,236.668788 C161.649367,236.668788 162.282633,236.534385 162.889067,236.335096 C162.9642,236.311923 163.0447,236.321192 163.119833,236.293385 L236.208467,209.245769 L314.647667,236.339731 C315.291667,236.562192 315.967867,236.668788 316.644067,236.668788 C317.7013,236.668788 318.753167,236.395346 319.654767,235.871635 C321.1145,235.009596 322,233.572865 322,232.034173 L322,37.3803269 C322,35.5774615 320.7925,33.9414423 318.903433,33.1813654 L318.903433,33.1813654 Z M10.8,35.8833462 L89.9999969,11.7833462 L89.9999969,201.088846 L10.8,225.188846 L10.8,35.8833462 L10.8,35.8833462 Z M91.8,11.9687308 L164.600003,35.8045577 L164.600003,225.003462 L91.8,201.167635 L91.8,11.9687308 L91.8,11.9687308 Z M167.4,35.7999231 L240.200003,11.9640962 L240.200003,201.167635 L167.4,225.003462 L167.4,35.7999231 L167.4,35.7999231 Z M313.199997,225.188846 L243,201.088846 L243,12.2143654 L313.199997,40.3279423 L313.199997,225.188846 L313.199997,225.188846 Z" id="Shape"></path>
                </g>
                <text id="Event-streamer" font-family="ArialRoundedMTBold, Arial Rounded MT Bold" font-size="16" font-weight="normal">
                    <tspan x="127.199219" y="280">Event streamer</tspan>
                </text>
            </g>
            <g id="lhs" transform="translate(0.000000, 32.000000)">
                <g id="web" transform="translate(23.000000, 0.000000)" fill="#FFFFFF">
                    <g id="mindmap">
                        <g id="Capa_1">
                            <path d="M113.6875,61.3614839 C110.297515,61.3614839 107.298246,63.0910674 105.48867,65.7279003 L98.1162281,64.4262434 C98.1253655,64.1439384 98.1374269,63.8620059 98.1374269,63.5774663 C98.1374269,60.2426921 97.4883041,57.0606158 96.3198099,54.1489267 L108.806287,46.4723167 C110.486477,47.7762082 112.580775,48.5519883 114.850877,48.5519883 C120.365132,48.5519883 124.851243,43.9807331 124.851243,38.3618211 C124.851243,32.7432815 120.365132,28.1723988 114.850877,28.1723988 C109.336988,28.1723988 104.851243,32.7432815 104.851243,38.3618211 C104.851243,38.9588328 104.904605,39.5428094 105.001827,40.1118886 L92.5774854,47.7501378 C88.8077485,43.0671525 83.4046053,39.8005337 77.2635234,38.8612551 L77.2635234,23.229827 C81.8457602,21.6678387 85.1597222,17.2559853 85.1597222,12.067607 C85.1597222,5.57719941 79.9777047,0.296457478 73.6085526,0.296457478 C67.2397661,0.296457478 62.058114,5.57682698 62.058114,12.067607 C62.058114,17.2559853 65.3709795,21.6674663 69.9535819,23.229827 L69.9535819,38.8612551 C61.5851608,40.1409384 54.5921053,45.7460704 51.2302632,53.3627185 L28.3512427,46.2019296 C28.4199561,45.6257742 28.4594298,45.0403079 28.4594298,44.4455308 C28.4594298,36.4501173 22.0763889,29.9451848 14.2302632,29.9451848 C6.38340643,29.9451848 0,36.4501173 0,44.4455308 C0,52.4405718 6.38340643,58.945132 14.2306287,58.945132 C18.8797515,58.945132 23.0142544,56.6609941 25.6125731,53.1370235 L49.2675439,60.5406393 C49.1487573,61.5369003 49.0800439,62.5488035 49.0800439,63.5770938 C49.0800439,70.2809062 51.688962,76.3720645 55.9199561,80.8651085 L45.6147661,92.0411085 C44.1107456,91.3569472 42.4466374,90.9733402 40.6955409,90.9733402 C34.0146199,90.9733402 28.5800439,96.511434 28.5800439,103.318783 C28.5800439,110.125387 34.0146199,115.663109 40.6955409,115.663109 C47.3753655,115.663109 52.810307,110.125387 52.810307,103.318783 C52.810307,101.003733 52.1805556,98.8365396 51.0884503,96.9829355 L61.7346491,85.4367361 C65.2554825,87.4303754 69.3029971,88.5703959 73.6089181,88.5703959 C77.7222222,88.5703959 81.5997807,87.5283255 85.0087719,85.6970674 L95.6315789,102.156044 C93.0434942,104.783194 91.438962,108.415915 91.438962,112.423305 C91.438962,120.418718 97.8227339,126.923651 105.669225,126.923651 C113.515716,126.923651 119.899488,120.419091 119.899488,112.423305 C119.899488,104.428264 113.515716,97.9237038 105.669225,97.9237038 C104.390716,97.9237038 103.151681,98.0991202 101.972222,98.4231378 L90.9067982,81.2788827 C93.5219298,78.6256628 95.5493421,75.3746862 96.7839912,71.7494135 L103.789839,72.9862669 C104.476608,77.927349 108.652778,81.7403284 113.688231,81.7403284 C119.202485,81.7403284 123.688596,77.1690733 123.688596,71.5501613 C123.687865,65.9323666 119.201754,61.3614839 113.6875,61.3614839 L113.6875,61.3614839 Z M56.3896199,63.5770938 C56.3896199,53.9023754 64.1140351,46.0313548 73.6081871,46.0313548 C83.1030702,46.0313548 90.8271199,53.9023754 90.8271199,63.5770938 C90.8271199,73.2514399 83.1027047,81.122088 73.6081871,81.122088 C64.1140351,81.122088 56.3896199,73.2514399 56.3896199,63.5770938 L56.3896199,63.5770938 Z" id="Shape"></path>
                        </g>
                    </g>
                    <text id="Web-Service" font-family="ArialRoundedMTBold, Arial Rounded MT Bold" font-size="16" font-weight="normal">
                        <tspan x="14.546875" y="151">Web Service</tspan>
                    </text>
                </g>
                <g id="database" transform="translate(0.000000, 430.000000)" fill="#FFFFFF">
                    <g id="server" transform="translate(23.000000, 0.000000)">
                        <g id="Capa_1">
                            <g id="Group">
                                <path d="M58.3906667,0.348576923 L58.3906667,7.76223077 C58.634,7.76223077 58.8653333,7.70230769 59.1133333,7.76223077 L103.206667,17.4273846 C105.212667,17.8636538 106.511333,20.0055385 106.113333,22.2015 C105.76,24.1329231 104.213333,25.4629231 102.484667,25.4629231 C102.248667,25.4629231 102.001333,25.4322308 101.753333,25.3803462 L58.3906667,15.8759615 L58.3906667,20.3636154 C58.5853333,20.3636154 58.78,20.3102692 58.9833333,20.3460769 L103.077333,28.2193846 C105.094667,28.5803846 106.466667,30.6623462 106.134,32.8714615 C105.838,34.8635385 104.270667,36.2805 102.484667,36.2805 C102.289333,36.2805 102.086667,36.2629615 101.884,36.2271538 L58.3826667,28.4576154 L58.3826667,32.0354615 C58.562,32.0288846 58.74,31.9711538 58.9186667,31.9974615 L103.008667,39.0281923 C105.026,39.3468077 106.430667,41.4112308 106.142667,43.6269231 C105.870667,45.6453077 104.295333,47.0980769 102.480667,47.0980769 C102.306,47.0980769 102.132,47.0849231 101.944667,47.0578846 L58.3826667,40.1141154 L58.3826667,44.2013077 C58.5293333,44.1969231 58.6673333,44.137 58.8173333,44.1545385 L102.914667,49.8326154 C104.948,50.0971538 106.397333,52.1111538 106.162,54.3385385 C105.938667,56.3985769 104.342667,57.9207692 102.484,57.9207692 C102.341333,57.9207692 102.199333,57.9068846 102.053333,57.8944615 L58.3813333,52.2763077 L58.3813333,108.523615 L107.724,108.523615 L107.724,11.1654231 L58.3906667,0.348576923 L58.3906667,0.348576923 Z M99.4966667,70.6588077 C97.804,70.6588077 96.416,69.1417308 96.416,67.2819231 C96.416,65.4126154 97.804,63.8999231 99.4966667,63.8999231 C101.202,63.8999231 102.582,65.4126154 102.582,67.2819231 C102.582,69.1417308 101.201333,70.6588077 99.4966667,70.6588077 L99.4966667,70.6588077 Z" id="Shape"></path>
                                <path d="M16.4486667,57.5773077 C17.348,57.5283462 18.2486667,57.4925385 19.142,57.4925385 C30.7786667,57.4925385 43.2973333,61.8398846 43.2973333,71.3800769 L43.2973333,104.958192 C43.2973333,106.244346 43.054,107.418692 42.638,108.513385 L55.9226667,108.513385 L55.9226667,0.348576923 L16.4486667,21.983 L16.4486667,57.5773077 L16.4486667,57.5773077 Z" id="Shape"></path>
                                <path d="M19.142,92.3604615 C8.57133333,92.3604615 0,88.6094231 0,83.9683077 L0,92.3604615 C0,97.0023077 8.57133333,100.752615 19.142,100.752615 C29.7126667,100.752615 38.284,96.9964615 38.284,92.3604615 L38.284,83.9683077 C38.2846667,88.6094231 29.7126667,92.3604615 19.142,92.3604615 L19.142,92.3604615 Z" id="Shape"></path>
                                <path d="M19.142,104.957462 C8.57133333,104.957462 0,101.197654 0,96.5609231 L0,104.957462 C0,109.594192 8.57133333,113.349615 19.142,113.349615 C29.7126667,113.349615 38.284,109.593462 38.284,104.957462 L38.284,96.5609231 C38.2846667,101.197654 29.7126667,104.957462 19.142,104.957462 L19.142,104.957462 Z" id="Shape"></path>
                                <path d="M19.142,62.9879231 C8.57133333,62.9879231 0,66.7389615 0,71.3793462 L0,79.7715 C0,84.4133462 8.57133333,88.1680385 19.142,88.1680385 C29.7126667,88.1680385 38.284,84.4126154 38.284,79.7715 L38.284,71.3793462 C38.2846667,66.7389615 29.7126667,62.9879231 19.142,62.9879231 L19.142,62.9879231 Z M19.142,77.6763846 C8.622,77.6763846 1.91133333,73.9465385 1.91133333,71.3793462 C1.91133333,68.8121538 8.62133333,65.0881538 19.142,65.0881538 C29.66,65.0881538 36.368,68.8128846 36.368,71.3793462 C36.3686667,73.9472692 29.66,77.6763846 19.142,77.6763846 L19.142,77.6763846 Z" id="Shape"></path>
                            </g>
                        </g>
                    </g>
                    <text id="Database-/-Datawareh" font-family="ArialRoundedMTBold, Arial Rounded MT Bold" font-size="16" font-weight="normal">
                        <tspan x="44.453125" y="149">Database / </tspan>
                        <tspan x="24.8398438" y="167">Datawarehouse </tspan>
                        <tspan x="53.5976562" y="185">systems</tspan>
                    </text>
                </g>
                <g id="apps" transform="translate(16.000000, 216.000000)" fill="#FFFFFF">
                    <g id="network-connection" transform="translate(7.000000, 0.000000)">
                        <g id="Capa_1">
                            <path d="M121.848256,103.521553 L118.562791,103.521553 L118.562791,79.373933 C118.562791,77.6148939 117.261047,76.1895754 115.655814,76.1895754 L95.1040698,76.1895754 C94.8918605,75.929095 94.647093,75.6947263 94.352907,75.5157654 L65.4401163,57.9559441 L65.4401163,37.5416648 L89.3889535,37.5416648 C90.994186,37.5416648 92.2959302,36.1163464 92.2959302,34.3573073 L92.2959302,30.7182235 C92.2959302,28.9591844 90.994186,27.5338659 89.3889535,27.5338659 L86.1040698,27.5338659 L86.1040698,3.38624581 C86.1040698,1.6272067 84.8023256,0.201888268 83.197093,0.201888268 L41.869186,0.201888268 C40.2639535,0.201888268 38.9622093,1.6272067 38.9622093,3.38624581 L38.9622093,27.5338659 L35.6773256,27.5338659 C34.072093,27.5338659 32.7703488,28.9591844 32.7703488,30.7182235 L32.7703488,34.3573073 C32.7703488,36.1163464 34.072093,37.5416648 35.6773256,37.5416648 L59.6261628,37.5416648 L59.6261628,57.956581 L30.7133721,75.5164022 C30.419186,75.6947263 30.1744186,75.9297318 29.9622093,76.1902123 L9.09883721,76.1902123 C7.49360465,76.1902123 6.19186047,77.6155307 6.19186047,79.3745698 L6.19186047,103.52219 L2.90697674,103.52219 C1.30174419,103.52219 0,104.947508 0,106.706547 L0,110.346268 C0,112.105307 1.30174419,113.530626 2.90697674,113.530626 L56.6186047,113.530626 C58.2238372,113.530626 59.5255814,112.105307 59.5255814,110.346268 L59.5255814,106.706547 C59.5255814,104.947508 58.2238372,103.52219 56.6186047,103.52219 L53.3337209,103.52219 L53.3337209,79.3745698 C53.3337209,77.6155307 52.0319767,76.1902123 50.4267442,76.1902123 L41.5947674,76.1902123 L62.5331395,63.4737989 L83.4715116,76.1902123 L74.3284884,76.1902123 C72.7232558,76.1902123 71.4215116,77.6155307 71.4215116,79.3745698 L71.4215116,103.52219 L68.1366279,103.52219 C66.5313953,103.52219 65.2296512,104.947508 65.2296512,106.706547 L65.2296512,110.346268 C65.2296512,112.105307 66.5313953,113.530626 68.1366279,113.530626 L121.848256,113.530626 C123.453488,113.530626 124.755233,112.105307 124.755233,110.346268 L124.755233,106.706547 C124.755233,104.946872 123.453488,103.521553 121.848256,103.521553 L121.848256,103.521553 Z M44.7761628,6.57060335 L80.2895349,6.57060335 L80.2895349,26.9568603 L44.7761628,26.9568603 L44.7761628,6.57060335 L44.7761628,6.57060335 Z M47.5197674,103.521553 L12.005814,103.521553 L12.005814,82.5582905 L47.5197674,82.5582905 L47.5197674,103.521553 L47.5197674,103.521553 Z M77.2354651,82.5582905 L112.748837,82.5582905 L112.748837,102.98276 L77.2354651,102.98276 L77.2354651,82.5582905 L77.2354651,82.5582905 Z" id="Shape"></path>
                        </g>
                    </g>
                    <text id="Enterprise-Apps" font-family="ArialRoundedMTBold, Arial Rounded MT Bold" font-size="16" font-weight="normal">
                        <tspan x="5.99609375" y="146">Enterprise Apps</tspan>
                    </text>
                </g>
                <path d="M209.5,290.5 L344.5,290.5" id="Line" stroke="#FFFFFF" stroke-linecap="square"></path>
                <path id="Line-decoration-1" d="M344.5,290.5 L333.7,287.5 L333.7,293.5 L344.5,290.5 Z" stroke="#FFFFFF" stroke-linecap="square"></path>
            </g>
            <g id="rhs" transform="translate(744.000000, 0.000000)">
                <g id="emails" transform="translate(181.000000, 0.000000)" fill="#FFFFFF">
                    <g id="Group-6">
                        <g id="Capa_1">
                            <g id="Group">
                                <path d="M50.4375,48.9476538 L47.4023438,48.9476538 C45.828125,48.9476538 44.5507813,47.9069615 44.5507813,46.6204615 C44.5507813,46.1448077 44.7851563,45.6851154 45.203125,45.3531154 C46.96875,43.9548846 48.453125,42.0714231 49.5273438,40.0347308 C49.7460938,40.1656154 49.9804688,40.2581923 50.2460938,40.2581923 C51.9492188,40.2581923 53.953125,37.1808077 53.953125,35.0834615 C53.953125,32.9861154 53.71875,31.2846154 52.0117188,31.2846154 C51.8085938,31.2846154 51.5976563,31.3133462 51.3789063,31.3580385 C51.2578125,25.6693462 49.5,18.5728462 38.8710938,18.5728462 C27.78125,18.5728462 26.4882813,25.6565769 26.3632813,31.3388846 C26.2070313,31.3133462 26.0507813,31.2846154 25.90625,31.2846154 C24.1992188,31.2846154 23.9648438,32.9861154 23.9648438,35.0834615 C23.9648438,37.1808077 25.9648438,40.2581923 27.671875,40.2581923 C27.8828125,40.2581923 28.078125,40.2103077 28.2617188,40.1273077 C29.3320313,42.1225 30.796875,43.9740385 32.5351563,45.3658846 C32.953125,45.6978846 33.1875,46.1511923 33.1875,46.6300385 C33.1875,47.9165385 31.9101563,48.9572308 30.3359375,48.9572308 L27.296875,48.9572308 C20.8046875,48.9572308 15.5429688,53.2604615 15.5429688,58.5660769 L15.5429688,61.2284615 C15.5429688,62.8980385 17.203125,64.2611538 19.2539063,64.2611538 L58.4765625,64.2611538 C60.5273438,64.2611538 62.1875,62.8980385 62.1875,61.2284615 L62.1875,58.5660769 C62.1914063,53.2508846 56.9335938,48.9476538 50.4375,48.9476538 L50.4375,48.9476538 Z" id="Shape"></path>
                                <path d="M86.3046875,21.9694615 C73.0820312,21.9694615 63.1132812,30.2630769 63.1132812,41.2573846 C63.1132812,51.8143462 72.9257812,57.3338462 82.609375,57.3338462 C87.1640625,57.3338462 90.328125,56.8262692 93.8828125,55.5174231 C94.328125,55.3514231 94.5625,54.9332308 94.4140625,54.5533462 L93.3476562,51.7409231 C93.265625,51.5174615 93.0664062,51.3355 92.7851562,51.2429231 C92.5234375,51.1535385 92.2148437,51.1631154 91.9570312,51.2716538 C89.8242187,52.1878462 86.7773437,52.7337308 83.8046875,52.7337308 C75.03125,52.7337308 69.578125,48.1655385 69.578125,40.8200385 C69.578125,31.4410385 77.6445312,26.5312692 85.6289062,26.5312692 C93.6640625,26.5312692 98.8515625,30.6174231 98.8515625,36.9413846 C98.8515625,42.0458846 96.0898437,44.3379615 94.0898437,44.3379615 C93.734375,44.3283846 93.6484375,44.2326154 93.59375,44.1879231 C93.375,43.9708462 93.078125,43.2717308 93.5351562,41.0466923 L95.4140625,31.5208462 L94.8320312,31.2495 C93.15625,30.4865385 89.9960937,29.9342692 87.2734375,29.9342692 C77.6132812,29.9342692 72.4023437,36.1688462 72.4023437,42.0363077 C72.4023437,46.2884615 75.46875,49.1455769 80.03125,49.1455769 C82.9296875,49.1455769 85.4257812,48.1942692 87.3320312,46.3746538 C88.2265625,48.1368077 90.1992187,49.1455769 92.9140625,49.1455769 C100.136719,49.1455769 105.171875,44.0698077 105.171875,36.8009231 C105.203125,28.2008462 97.25,21.9694615 86.3046875,21.9694615 L86.3046875,21.9694615 Z M86.4023437,39.2398462 C85.90625,41.8383846 83.8554687,43.658 82.3203125,43.658 C81,43.658 80.328125,42.9205769 80.328125,41.4521154 C80.328125,38.0938077 83.0195312,35.3611923 86.3554687,35.3611923 C86.6132812,35.3611923 86.875,35.3739615 87.0898437,35.3963077 L86.4023437,39.2398462 L86.4023437,39.2398462 Z" id="Shape"></path>
                                <path d="M107.871094,0.185153846 L16.8945312,0.185153846 C7.5625,0.185153846 0,6.36546154 0,13.9918846 L0,68.8229615 C0,75.1405385 5.23046875,80.4142308 12.3242187,82.0582692 C13.7890625,82.3934615 15.3007812,82.6424615 16.8984375,82.6424615 L20.0625,82.6424615 C20.3320312,79.2075385 23.7929687,76.4653462 28.0625,76.4653462 C32.3320312,76.4653462 35.7929687,79.2011538 36.0625,82.6424615 L43.8789062,82.6424615 L49.0703125,82.6424615 L56.8867187,82.6424615 C57.15625,79.2075385 60.6171875,76.4653462 64.8828125,76.4653462 C69.15625,76.4653462 72.6132812,79.2011538 72.8867187,82.6424615 L80.703125,82.6424615 L84.7148437,82.6424615 L92.5273437,82.6424615 C92.7929687,79.2075385 96.2578125,76.4653462 100.535156,76.4653462 C104.78125,76.4653462 108.226562,79.182 108.527344,82.5818077 C111.277344,82.5051923 113.835937,81.8603462 116.101562,80.8228462 C121.246094,78.4605385 124.78125,74.0040769 124.78125,68.8293462 L124.78125,13.9918846 C124.761719,6.36865385 117.195312,0.185153846 107.871094,0.185153846 L107.871094,0.185153846 Z M116.78125,68.8261538 C116.78125,71.3672308 115.183594,73.6018462 112.765625,74.9075 C109.859375,71.9865385 105.484375,70.0775385 100.519531,70.0775385 C94.9023437,70.0775385 89.9960937,72.4973077 87.1835937,76.1141923 L78.2148437,76.1141923 C75.3984375,72.4973077 70.4921875,70.0775385 64.8828125,70.0775385 C59.2617187,70.0775385 54.3554687,72.4973077 51.5351562,76.1141923 L41.3984375,76.1141923 C38.5820312,72.4973077 33.6796875,70.0775385 28.0585937,70.0775385 C22.5429687,70.0775385 17.6992187,72.4047308 14.859375,75.8939231 C10.9257812,75.1469231 7.9765625,72.2578846 7.9765625,68.8165769 L7.9765625,13.9918846 C7.9765625,9.97276923 11.9765625,6.70384615 16.8945312,6.70384615 L107.871094,6.70384615 C112.789062,6.70384615 116.78125,9.97276923 116.78125,13.9918846 L116.78125,68.8261538 L116.78125,68.8261538 L116.78125,68.8261538 Z" id="Shape"></path>
                            </g>
                        </g>
                        <text id="Outlook,-Gmail" font-family="ArialRoundedMTBold, Arial Rounded MT Bold" font-size="16" font-weight="normal">
                            <tspan x="5.07421875" y="119">Outlook, Gmail</tspan>
                        </text>
                    </g>
                </g>
                <g id="sms" transform="translate(198.000000, 507.000000)" fill="#FFFFFF">
                    <g id="speech-bubble" transform="translate(11.000000, 0.000000)">
                        <g id="Capa_1">
                            <g id="Group">
                                <path d="M11.6522785,72.8240096 C9.81787342,72.8240096 8.03872152,72.5710893 6.36025316,72.0726256 L2.53796203,70.9376457 L5.47497468,68.5507104 C9.36234177,65.3913143 10.3433924,61.7471543 10.4072405,59.0177227 C3.6884557,52.6241083 0,44.6476343 0,36.4667164 C-0.0012278481,16.4196211 21.6641519,0.109423158 48.2937215,0.109423158 C74.9232911,0.109423158 96.5898987,16.4196211 96.5898987,36.4667164 C96.5898987,56.5127579 74.9232911,72.821902 48.2937215,72.821902 C40.3655063,72.821902 32.5441139,71.3475874 25.5736203,68.546495 C22.9472532,70.1430544 17.6417215,72.8240096 11.6522785,72.8240096 L11.6522785,72.8240096 Z M24.9977595,63.5976878 L26.4073291,64.2099657 C33.0340253,67.0858803 40.602481,68.6076174 48.2924937,68.6076174 C72.2146582,68.6076174 91.6772785,54.1890526 91.6772785,36.4677702 C91.6772785,18.7443802 72.2146582,4.32581534 48.2924937,4.32581534 C24.3703291,4.32581534 4.90893671,18.7443802 4.90893671,36.4667164 C4.90893671,43.8319663 8.36410127,51.032818 14.6396329,56.74144 L15.2781139,57.3221029 L15.3075823,58.1198556 C15.4156329,60.9852319 14.816443,64.87072 11.8487342,68.6065636 C17.5361266,68.5285798 22.7643038,65.1310171 23.7637722,64.4449708 L24.9977595,63.5976878 L24.9977595,63.5976878 Z" id="Shape"></path>
                                <path d="M24.8688354,46.4106995 C23.0675823,46.4106995 21.6052152,46.2895086 20.4755949,46.0460728 C19.3484304,45.8047447 18.5687468,45.5560397 18.1402278,45.3031194 C18.0321772,45.210382 17.9916582,44.9985612 18.017443,44.6634418 C18.0432278,44.3314839 18.1046203,43.9837185 18.1991646,43.6275224 C18.292481,43.2713263 18.414038,42.9509606 18.5613797,42.6780174 C18.7087215,42.4019128 18.8486962,42.273345 18.9849873,42.2975832 C19.6836329,42.5051886 20.442443,42.7075248 21.2614177,42.9024842 C22.0803924,43.0974436 23.1216076,43.1954502 24.3838354,43.1954502 C25.6743038,43.1954502 26.7670886,43.0363212 27.669557,42.7117402 C28.5683418,42.3882129 29.0201899,41.8117654 29.0201899,40.9823976 C29.0201899,40.2647362 28.7230506,39.6840734 28.1324557,39.2351398 C27.5418608,38.7862063 26.4797722,38.3067116 24.9486456,37.8019248 C24.1149367,37.5226586 23.3303418,37.2181005 22.5911772,36.8829811 C21.8507848,36.5499693 21.2012532,36.156889 20.636443,35.7069017 C20.0716329,35.2579681 19.6296076,34.7215663 19.3066835,34.0998039 C18.9837595,33.4780415 18.8216835,32.7393035 18.8216835,31.8856974 C18.8216835,31.194382 18.9776203,30.5367892 19.2858101,29.9139729 C19.594,29.2911567 20.0716329,28.7547549 20.7162532,28.3058214 C21.3608734,27.8568878 22.1872152,27.4985841 23.1952785,27.2340716 C24.2033418,26.9685053 25.4054051,26.8357221 26.8026962,26.8357221 C27.7149873,26.8357221 28.4750253,26.8536373 29.0791266,26.88736 C29.6832278,26.9221365 30.1792785,26.9685053 30.570962,27.0264662 C30.958962,27.0844271 31.2757468,27.1476571 31.5176329,27.2172102 C31.759519,27.2867633 31.9878987,27.3436704 32.2027722,27.3900391 C32.3906329,27.4585383 32.4851772,27.6608746 32.4851772,27.9949402 C32.4851772,28.3290057 32.4299241,28.6862556 32.3231013,29.0677438 C32.2162785,29.4471242 32.0677089,29.7822436 31.8810759,30.0699405 C31.6919873,30.3586911 31.5041266,30.4798821 31.3162658,30.4335134 C30.8595063,30.3186454 30.2345316,30.1921853 29.4425696,30.0541329 C28.6493797,29.9150268 27.8782911,29.8465275 27.1256203,29.8465275 C25.5932658,29.8465275 24.5397722,30.0320024 23.9626835,30.3997907 C23.3843671,30.7686328 23.0958228,31.263935 23.0958228,31.8867513 C23.0958228,32.5559362 23.4187468,33.092338 24.0633671,33.4949029 C24.7079873,33.8974677 25.7160506,34.3074093 27.0851013,34.7226202 C29.2608481,35.4603044 30.8668734,36.3075874 31.9007215,37.2644692 C32.9345696,38.221351 33.4527215,39.4258839 33.4527215,40.8791218 C33.4527215,41.9635176 33.2108354,42.8634923 32.7282911,43.579046 C32.2432911,44.2935459 31.5986709,44.859455 30.7932025,45.2715044 C29.9877342,45.6888229 29.0668481,45.9817889 28.033,46.1546177 C26.9979241,46.3242851 25.9432025,46.4106995 24.8688354,46.4106995 L24.8688354,46.4106995 Z" id="Shape"></path>
                                <path d="M53.9234051,46.2378707 C53.3598228,46.2378707 52.9902405,46.1577792 52.8171139,45.9954887 C52.6403038,45.8353059 52.5555823,45.5244247 52.5555823,45.0607374 L52.5555823,32.9553395 C51.4812152,34.4538923 50.6524177,35.6120565 50.0741013,36.430886 C49.494557,37.2507693 49.0758608,37.8504012 48.8057342,38.2308355 C48.5368354,38.6091621 48.3747595,38.8357365 48.3195063,38.9042358 C48.2667089,38.9737889 48.2421519,39.0212114 48.2421519,39.0443958 C48.0014937,39.3900535 47.8320506,39.6145203 47.7387342,39.7188499 C47.642962,39.8252872 47.4477342,39.8737636 47.1530506,39.8737636 L46.5084304,39.8737636 C46.1597215,39.8737636 45.9301139,39.8221257 45.8232911,39.7188499 C45.7164684,39.6145203 45.5543924,39.3900535 45.339519,39.0443958 L41.2286835,33.0270003 L41.2286835,45.2715044 C41.2286835,45.5718472 41.168519,45.80896 41.046962,45.9817889 C40.9266329,46.1546177 40.6110759,46.2410322 40.1002911,46.2410322 L38.4095443,46.2410322 C38.0325949,46.2410322 37.7047595,46.1893943 37.4211266,46.0850647 C37.1399494,45.9817889 36.997519,45.6424541 36.997519,45.0638989 L36.997519,28.460735 C36.997519,27.9991555 37.0982025,27.6935435 37.2995696,27.5438989 C37.5009367,27.3942544 37.789481,27.3194322 38.1664304,27.3194322 L40.1813291,27.3194322 C40.4760127,27.3194322 40.7252658,27.3531549 40.9266329,27.422708 C41.128,27.4922611 41.3355063,27.6650899 41.5516076,27.9411946 L46.9099367,35.2737756 L52.2694937,28.0107477 C52.4315696,27.7567735 52.6243418,27.5786755 52.8564051,27.4743459 C53.0860127,27.3700162 53.3045696,27.3194322 53.5206709,27.3194322 L55.7381646,27.3194322 C56.2489494,27.3194322 56.5424051,27.4111158 56.6258987,27.5955368 C56.7069367,27.7810117 56.7462278,28.0803008 56.7462278,28.4955116 L56.7462278,45.2335663 C56.7462278,45.5792241 56.6934304,45.834252 56.5853797,45.9965426 C56.4773291,46.1588331 56.1679114,46.2378707 55.6595823,46.2378707 L53.9234051,46.2378707 L53.9234051,46.2378707 L53.9234051,46.2378707 Z" id="Shape"></path>
                                <path d="M67.3450127,46.4106995 C65.5425316,46.4106995 64.0813924,46.2895086 62.9517722,46.0460728 C61.8246076,45.8047447 61.0436962,45.5560397 60.6164051,45.3031194 C60.5083544,45.210382 60.4678354,44.9985612 60.4936203,44.6634418 C60.5194051,44.3314839 60.5783418,43.9837185 60.6741139,43.6275224 C60.7674304,43.2713263 60.8877595,42.9509606 61.0363291,42.6780174 C61.182443,42.4008589 61.3224177,42.273345 61.4599367,42.2975832 C62.1585823,42.5051886 62.9186203,42.7075248 63.7363671,42.9024842 C64.5541139,43.0984974 65.5953291,43.1954502 66.8587848,43.1954502 C68.1492532,43.1954502 69.2408101,43.0363212 70.1445063,42.7117402 C71.0420633,42.3882129 71.4963671,41.8117654 71.4963671,40.9823976 C71.4963671,40.2647362 71.1992278,39.6840734 70.6074051,39.2351398 C70.0155823,38.7862063 68.9547215,38.3067116 67.4223671,37.8019248 C66.5886582,37.5226586 65.8052911,37.2181005 65.0648987,36.8829811 C64.3245063,36.5499693 63.6749747,36.156889 63.1089367,35.7069017 C62.5453544,35.2579681 62.1033291,34.7215663 61.7804051,34.0998039 C61.4562532,33.4769877 61.2954051,32.7393035 61.2954051,31.8856974 C61.2954051,31.194382 61.4513418,30.5367892 61.7583038,29.9139729 C62.0677215,29.2911567 62.5453544,28.7547549 63.1899747,28.3058214 C63.8345949,27.8568878 64.6597089,27.4985841 65.6677722,27.2340716 C66.6770633,26.9685053 67.8803544,26.8357221 69.2751899,26.8357221 C70.1887089,26.8357221 70.9487468,26.8536373 71.5516203,26.88736 C72.1557215,26.9221365 72.6517722,26.9685053 73.0446835,27.0264662 C73.4314557,27.0844271 73.7482405,27.1476571 73.9913544,27.2172102 C74.2320127,27.2857095 74.4616203,27.3436704 74.6777215,27.3900391 C74.8643544,27.4585383 74.9588987,27.6608746 74.9588987,27.9949402 C74.9588987,28.3290057 74.9036456,28.6862556 74.7955949,29.0677438 C74.69,29.4471242 74.5414304,29.7822436 74.3560253,30.0699405 C74.1669367,30.3586911 73.9778481,30.4798821 73.7899873,30.4335134 C73.3344557,30.3186454 72.7070253,30.1921853 71.917519,30.0541329 C71.1243291,29.9150268 70.3520127,29.8465275 69.6005696,29.8465275 C68.0682152,29.8465275 67.0134937,30.0320024 66.4376329,30.3997907 C65.8593165,30.7686328 65.5695443,31.263935 65.5695443,31.8867513 C65.5695443,32.5559362 65.8936962,33.092338 66.5383165,33.4949029 C67.1817089,33.8974677 68.191,34.3074093 69.5600506,34.7226202 C71.7345696,35.4603044 73.3418228,36.3075874 74.3756709,37.2644692 C75.409519,38.221351 75.9276709,39.4258839 75.9276709,40.8791218 C75.9276709,41.9635176 75.6857848,42.8634923 75.2032405,43.579046 C74.7182405,44.2935459 74.0736203,44.859455 73.2681519,45.2715044 C72.4626835,45.6888229 71.5417975,45.9817889 70.5079494,46.1546177 C69.4704177,46.3242851 68.4193797,46.4106995 67.3450127,46.4106995 L67.3450127,46.4106995 Z" id="Shape"></path>
                            </g>
                        </g>
                    </g>
                    <text id="SMS" font-family="ArialRoundedMTBold, Arial Rounded MT Bold" font-size="16" font-weight="normal">
                        <tspan x="36.6640625" y="104">SMS</tspan>
                    </text>
                </g>
                <g id="notification" transform="translate(186.000000, 339.000000)">
                    <g id="chat" transform="translate(16.000000, 0.000000)">
                        <g id="Layer_1">
                            <g id="Group">
                                <path d="M15.0979592,82.7188084 C15.3404082,82.815771 15.6269388,82.8545561 15.8914286,82.8545561 C16.3983673,82.8545561 16.9053061,82.6800234 17.28,82.369743 L31.0995918,70.734229 L57.0857143,70.734229 C62.4857143,70.734229 66.8718367,66.8751168 66.8718367,62.1239486 L66.8718367,49.1503505 C66.8718367,48.1807243 65.9681633,47.3856308 64.8661224,47.3856308 C63.7640816,47.3856308 62.8604082,48.1807243 62.8604082,49.1503505 L62.8604082,62.1239486 C62.8604082,64.9358645 60.2595918,67.2047897 57.0857143,67.2047897 L30.2840816,67.2047897 C29.7771429,67.2047897 29.2702041,67.3793224 28.8955102,67.6896028 L17.875102,76.959229 L17.875102,68.9889019 C17.875102,68.0192757 16.9714286,67.2241822 15.8693878,67.2241822 L9.78612245,67.2241822 C6.59020408,67.2241822 4.01142857,64.9358645 4.01142857,62.1433411 L4.01142857,36.7391355 C4.01142857,33.9272196 6.6122449,31.6389019 9.78612245,31.6389019 L33.4359184,31.6389019 C34.5379592,31.6389019 35.4416327,30.8438084 35.4416327,29.8741822 C35.4416327,28.9045561 34.5379592,28.1094626 33.4359184,28.1094626 L9.78612245,28.1094626 C4.38612245,28.1094626 0,31.9685748 0,36.719743 L0,62.1239486 C0,66.8751168 4.38612245,70.734229 9.78612245,70.734229 L13.8857143,70.734229 L13.8857143,81.109229 C13.8857143,81.8073598 14.3706122,82.4473131 15.0979592,82.7188084 L15.0979592,82.7188084 Z" id="Shape" fill="#FFFFFF"></path>
                                <path d="M76.5257143,42.944743 L90.4555102,54.6772196 C90.8302041,54.9875 91.3371429,55.1620327 91.8440816,55.1620327 C92.1085714,55.1620327 92.3730612,55.1232477 92.637551,55.026285 C93.364898,54.7547897 93.8497959,54.1148364 93.8497959,53.4167056 L93.8497959,42.944743 L97.9934694,42.944743 C103.41551,42.944743 107.845714,39.0662383 107.845714,34.276285 L107.845714,8.67815421 C107.845714,3.90759346 103.437551,0.00969626168 97.9934694,0.00969626168 L50.3191837,0.00969626168 C44.8971429,0.00969626168 40.4669388,3.88820093 40.4669388,8.67815421 L40.4669388,34.276285 C40.4669388,39.0468458 44.875102,42.944743 50.3191837,42.944743 L76.5257143,42.944743 L76.5257143,42.944743 L76.5257143,42.944743 Z M44.4783673,34.276285 L44.4783673,8.67815421 C44.4783673,5.84684579 47.1012245,3.53913551 50.3191837,3.53913551 L97.9714286,3.53913551 C101.189388,3.53913551 103.812245,5.84684579 103.812245,8.67815421 L103.812245,34.276285 C103.812245,37.1075935 101.189388,39.4153037 97.9714286,39.4153037 L91.8220408,39.4153037 C90.72,39.4153037 89.8163265,40.2103972 89.8163265,41.1800234 L89.8163265,49.2860981 L78.6857143,39.9195093 C78.3110204,39.609229 77.8261224,39.4346963 77.2971429,39.4346963 L50.3191837,39.4346963 C47.1012245,39.4346963 44.4783673,37.126986 44.4783673,34.276285 L44.4783673,34.276285 Z" id="Shape" fill="#FFFFFF"></path>
                                <path d="M74.1453061,23.5910047 C74.6742857,23.5910047 75.1812245,23.3970794 75.5559184,23.0674065 C75.9306122,22.7377336 76.1510204,22.2917056 76.1510204,21.826285 C76.1510204,21.3608645 75.9306122,20.9148364 75.5559184,20.5851636 C75.1812245,20.2554907 74.6742857,20.0615654 74.1453061,20.0615654 C73.6163265,20.0615654 73.1093878,20.2554907 72.7346939,20.5851636 C72.36,20.9148364 72.1395918,21.3608645 72.1395918,21.826285 C72.1395918,22.2917056 72.36,22.7377336 72.7346939,23.0674065 C73.1093878,23.416472 73.6163265,23.5910047 74.1453061,23.5910047 L74.1453061,23.5910047 Z" id="Shape" fill="#000000"></path>
                                <path d="M81.595102,23.5910047 C82.1240816,23.5910047 82.6310204,23.3970794 83.0057143,23.0674065 C83.3804082,22.7377336 83.6008163,22.2917056 83.6008163,21.826285 C83.6008163,21.3608645 83.3804082,20.9148364 83.0057143,20.5851636 C82.6310204,20.2554907 82.1240816,20.0615654 81.595102,20.0615654 C81.0661224,20.0615654 80.5591837,20.2554907 80.1844898,20.5851636 C79.8097959,20.9148364 79.5893878,21.3608645 79.5893878,21.826285 C79.5893878,22.2917056 79.8097959,22.7377336 80.1844898,23.0674065 C80.5371429,23.416472 81.0661224,23.5910047 81.595102,23.5910047 L81.595102,23.5910047 Z" id="Shape" fill="#000000"></path>
                                <path d="M66.717551,23.5910047 C67.2465306,23.5910047 67.7534694,23.3970794 68.1281633,23.0674065 C68.5028571,22.7377336 68.7232653,22.2917056 68.7232653,21.826285 C68.7232653,21.3608645 68.5028571,20.9148364 68.1281633,20.5851636 C67.7534694,20.2554907 67.2465306,20.0615654 66.717551,20.0615654 C66.1885714,20.0615654 65.6816327,20.2554907 65.3069388,20.5851636 C64.9322449,20.9148364 64.7118367,21.3608645 64.7118367,21.826285 C64.7118367,22.2917056 64.9322449,22.7377336 65.3069388,23.0674065 C65.6816327,23.416472 66.1885714,23.5910047 66.717551,23.5910047 L66.717551,23.5910047 Z" id="Shape" fill="#000000"></path>
                            </g>
                        </g>
                    </g>
                    <text id="Slack,-Hipchat,-MS-t" font-family="ArialRoundedMTBold, Arial Rounded MT Bold" font-size="16" font-weight="normal" fill="#FFFFFF">
                        <tspan x="10.6796875" y="110">Slack, Hipchat, </tspan>
                        <tspan x="31.2460938" y="128">MS teams</tspan>
                    </text>
                </g>
                <g id="desktop" transform="translate(181.000000, 159.000000)" fill="#FFFFFF">
                    <text id="Desktop,-mobile-" font-family="ArialRoundedMTBold, Arial Rounded MT Bold" font-size="16" font-weight="normal">
                        <tspan x="6.5390625" y="130">Desktop, mobile </tspan>
                    </text>
                    <g id="transfer-from-computer-to-phone">
                        <g id="Capa_1">
                            <g id="Group">
                                <path d="M83.164267,62.874039 L83.164267,62.4108506 L10.0006545,62.4108506 C6.73691099,62.4108506 4.08115183,59.9614481 4.08115183,56.9461948 L4.08115183,9.46486364 C4.08115183,6.45323377 6.73691099,4.00262338 10.0006545,4.00262338 L105.643979,4.00262338 C108.911649,4.00262338 111.566099,6.45323377 111.566099,9.46486364 L111.566099,12.6214286 L115.646597,12.6214286 L115.646597,9.46425974 C115.646597,4.38790909 111.143325,0.236123377 105.643979,0.236123377 L10.0006545,0.236123377 C4.50065445,0.236727273 0,4.39394805 0,9.46486364 L0,68.2396558 C0,73.3178182 4.5052356,77.469 10.0006545,77.469 L53.7421466,77.469 L53.7421466,85.3347468 L23.1374346,85.3347468 L19.0569372,89.100039 L19.0569372,92.8653312 L96.5903141,92.8653312 L96.5903141,89.100039 L92.5098168,85.3347468 L61.9037958,85.3347468 L61.9037958,77.4726234 L105.643325,77.4726234 C109.278141,77.4726234 112.449607,75.6416104 114.195026,72.9458182 L94.0863874,72.9458182 C88.0615183,72.9464221 83.164267,68.4274675 83.164267,62.874039 L83.164267,62.874039 Z" id="Shape"></path>
                                <path d="M117.614529,16.3909481 L94.078534,16.3909481 C90.3206806,16.3909481 87.2408377,19.2262403 87.2408377,22.6974351 L87.2408377,62.874039 C87.2408377,66.3416104 90.3167539,69.180526 94.078534,69.180526 L117.614529,69.180526 C121.376309,69.180526 124.456806,66.3416104 124.456806,62.874039 L124.456806,22.6974351 C124.456806,19.2262403 121.380236,16.3909481 117.614529,16.3909481 L117.614529,16.3909481 Z M105.850785,66.3609351 C104.535995,66.3609351 103.467932,65.379 103.467932,64.1651688 C103.467932,62.9555649 104.535995,61.9657792 105.850785,61.9657792 C107.162304,61.9657792 108.22644,62.9555649 108.22644,64.1651688 C108.22644,65.379 107.162304,66.3609351 105.850785,66.3609351 L105.850785,66.3609351 Z M121.663613,55.1520195 C121.663613,57.2076818 119.850131,58.8889286 117.614529,58.8889286 L94.078534,58.8889286 C91.8475131,58.8889286 90.0294503,57.2082857 90.0294503,55.1520195 L90.0294503,22.6938117 C90.0294503,20.6417727 91.8468586,18.9617338 94.078534,18.9617338 L117.614529,18.9617338 C119.850131,18.9617338 121.663613,20.6417727 121.663613,22.6938117 L121.663613,55.1520195 L121.663613,55.1520195 Z" id="Shape"></path>
                            </g>
                        </g>
                    </g>
                </g>
                <g id="Group-5" transform="translate(0.000000, 113.000000)" stroke="#FFFFFF" stroke-linecap="square">
                    <path d="M0.5,217.5 L151.5,390.5" id="Line"></path>
                    <path id="Line-decoration-1" d="M151.5,390.5 L146.658301,380.3907 L142.137988,384.336175 L151.5,390.5 Z"></path>
                    <path d="M0.5,181.5 L130.5,0.5" id="Line"></path>
                    <path id="Line-decoration-1" d="M130.5,0.5 L121.763083,7.52184287 L126.636371,11.0219946 L130.5,0.5 Z"></path>
                    <path d="M0.5,202.5 L136.5,202.5" id="Line"></path>
                    <path id="Line-decoration-1" d="M136.5,202.5 L125.7,199.5 L125.7,205.5 L136.5,202.5 Z"></path>
                </g>
            </g>
        </g>
    </g>
</svg>